<mxfile host="app.diagrams.net" modified="2023-02-16T13:48:04.231Z" agent="5.0 (Windows NT 10.0; Win64; x64) AppleWebKit/537.36 (KHTML, like Gecko) Chrome/110.0.0.0 Safari/537.36 Edg/110.0.1587.46" etag="L5MdNCRA0ShMlQqu9gfA" version="20.8.20" type="github">
  <diagram name="Page-1" id="FIGkw67pMRDh4MM9zdk1">
    <mxGraphModel dx="874" dy="444" grid="1" gridSize="10" guides="1" tooltips="1" connect="1" arrows="1" fold="1" page="1" pageScale="1" pageWidth="850" pageHeight="1100" math="0" shadow="0">
      <root>
        <mxCell id="0" />
        <mxCell id="1" parent="0" />
        <mxCell id="IhLSrTR3K9B3fhgBk1G8-4" value="Cotizador" style="swimlane;fontStyle=1;align=center;horizontal=1;startSize=30;collapsible=0;html=1;" parent="1" vertex="1">
          <mxGeometry x="230" y="50" width="600" height="620" as="geometry" />
        </mxCell>
        <mxCell id="IhLSrTR3K9B3fhgBk1G8-5" value="Cotizador" style="shape=umlFrame;tabPosition=left;html=1;boundedLbl=1;labelInHeader=1;width=80;height=30;swimlaneFillColor=#ffffff;align=left;spacingLeft=5;" parent="IhLSrTR3K9B3fhgBk1G8-4" vertex="1">
          <mxGeometry width="570" height="550" relative="1" as="geometry">
            <mxPoint x="15" y="60" as="offset" />
          </mxGeometry>
        </mxCell>
        <mxCell id="IhLSrTR3K9B3fhgBk1G8-12" value="Obtener informacion del vehiculo en el registro" style="ellipse;whiteSpace=wrap;html=1;labelBorderColor=default;" parent="IhLSrTR3K9B3fhgBk1G8-4" vertex="1">
          <mxGeometry x="50" y="200" width="140" height="70" as="geometry" />
        </mxCell>
        <mxCell id="IhLSrTR3K9B3fhgBk1G8-14" value="Ingresar informacion basica del vehiculo" style="shape=ellipse;html=1;strokeWidth=1;fontStyle=0;whiteSpace=wrap;align=center;perimeter=ellipsePerimeter;labelBorderColor=default;" parent="IhLSrTR3K9B3fhgBk1G8-4" vertex="1">
          <mxGeometry x="50" y="110" width="140" height="70" as="geometry" />
        </mxCell>
        <mxCell id="IhLSrTR3K9B3fhgBk1G8-18" value="Obtener Cotizaciones deseadas" style="ellipse;whiteSpace=wrap;html=1;labelBorderColor=default;" parent="IhLSrTR3K9B3fhgBk1G8-4" vertex="1">
          <mxGeometry x="50" y="300" width="140" height="70" as="geometry" />
        </mxCell>
        <mxCell id="IhLSrTR3K9B3fhgBk1G8-20" value="Cotizar Ins" style="ellipse;whiteSpace=wrap;html=1;labelBorderColor=default;" parent="IhLSrTR3K9B3fhgBk1G8-4" vertex="1">
          <mxGeometry x="360" y="250" width="140" height="70" as="geometry" />
        </mxCell>
        <mxCell id="IhLSrTR3K9B3fhgBk1G8-21" value="Cotizar Qualitas" style="ellipse;whiteSpace=wrap;html=1;labelBorderColor=default;" parent="IhLSrTR3K9B3fhgBk1G8-4" vertex="1">
          <mxGeometry x="360" y="330" width="140" height="70" as="geometry" />
        </mxCell>
        <mxCell id="IhLSrTR3K9B3fhgBk1G8-22" value="Cotizar Lafise" style="ellipse;whiteSpace=wrap;html=1;labelBorderColor=default;" parent="IhLSrTR3K9B3fhgBk1G8-4" vertex="1">
          <mxGeometry x="360" y="410" width="140" height="70" as="geometry" />
        </mxCell>
        <mxCell id="IhLSrTR3K9B3fhgBk1G8-23" value="Cotizar Oceanica" style="ellipse;whiteSpace=wrap;html=1;labelBorderColor=default;" parent="IhLSrTR3K9B3fhgBk1G8-4" vertex="1">
          <mxGeometry x="360" y="160" width="140" height="70" as="geometry" />
        </mxCell>
        <mxCell id="IhLSrTR3K9B3fhgBk1G8-28" value="Obtener Valor de mercado en Cr Autos" style="ellipse;whiteSpace=wrap;html=1;labelBorderColor=default;" parent="IhLSrTR3K9B3fhgBk1G8-4" vertex="1">
          <mxGeometry x="280" y="80" width="140" height="70" as="geometry" />
        </mxCell>
        <mxCell id="IhLSrTR3K9B3fhgBk1G8-29" value="&amp;lt;&amp;lt;include&amp;gt;&amp;gt;" style="edgeStyle=none;html=1;endArrow=open;verticalAlign=bottom;dashed=1;labelBackgroundColor=none;rounded=0;exitX=1;exitY=0.5;exitDx=0;exitDy=0;entryX=0.5;entryY=1;entryDx=0;entryDy=0;" parent="IhLSrTR3K9B3fhgBk1G8-4" source="IhLSrTR3K9B3fhgBk1G8-12" target="IhLSrTR3K9B3fhgBk1G8-28" edge="1">
          <mxGeometry x="0.1169" y="1" width="160" relative="1" as="geometry">
            <mxPoint x="200" y="325" as="sourcePoint" />
            <mxPoint x="260" y="115" as="targetPoint" />
            <mxPoint as="offset" />
          </mxGeometry>
        </mxCell>
        <mxCell id="IhLSrTR3K9B3fhgBk1G8-31" value="Ingresar correo del cliente para el envio de las cotizaciones" style="ellipse;whiteSpace=wrap;html=1;labelBorderColor=default;strokeWidth=1;" parent="IhLSrTR3K9B3fhgBk1G8-4" vertex="1">
          <mxGeometry x="50" y="390" width="140" height="70" as="geometry" />
        </mxCell>
        <mxCell id="IhLSrTR3K9B3fhgBk1G8-33" value="&amp;lt;&amp;lt;extend&amp;gt;&amp;gt;" style="edgeStyle=none;html=1;startArrow=open;endArrow=none;startSize=12;verticalAlign=bottom;dashed=1;labelBackgroundColor=none;rounded=0;exitX=0;exitY=0.5;exitDx=0;exitDy=0;entryX=1;entryY=0.5;entryDx=0;entryDy=0;" parent="IhLSrTR3K9B3fhgBk1G8-4" source="IhLSrTR3K9B3fhgBk1G8-22" target="IhLSrTR3K9B3fhgBk1G8-18" edge="1">
          <mxGeometry width="160" relative="1" as="geometry">
            <mxPoint x="170" y="350" as="sourcePoint" />
            <mxPoint x="330" y="350" as="targetPoint" />
          </mxGeometry>
        </mxCell>
        <mxCell id="IhLSrTR3K9B3fhgBk1G8-34" value="&amp;lt;&amp;lt;extend&amp;gt;&amp;gt;" style="edgeStyle=none;html=1;startArrow=open;endArrow=none;startSize=12;verticalAlign=bottom;dashed=1;labelBackgroundColor=none;rounded=0;entryX=1;entryY=0.5;entryDx=0;entryDy=0;exitX=0;exitY=0.5;exitDx=0;exitDy=0;" parent="IhLSrTR3K9B3fhgBk1G8-4" source="IhLSrTR3K9B3fhgBk1G8-21" target="IhLSrTR3K9B3fhgBk1G8-18" edge="1">
          <mxGeometry width="160" relative="1" as="geometry">
            <mxPoint x="370" y="455" as="sourcePoint" />
            <mxPoint x="200" y="335" as="targetPoint" />
            <Array as="points">
              <mxPoint x="340" y="360" />
            </Array>
          </mxGeometry>
        </mxCell>
        <mxCell id="IhLSrTR3K9B3fhgBk1G8-35" value="&amp;lt;&amp;lt;extend&amp;gt;&amp;gt;" style="edgeStyle=none;html=1;startArrow=open;endArrow=none;startSize=12;verticalAlign=bottom;dashed=1;labelBackgroundColor=none;rounded=0;entryX=1;entryY=0.5;entryDx=0;entryDy=0;exitX=0;exitY=0.5;exitDx=0;exitDy=0;" parent="IhLSrTR3K9B3fhgBk1G8-4" source="IhLSrTR3K9B3fhgBk1G8-20" target="IhLSrTR3K9B3fhgBk1G8-18" edge="1">
          <mxGeometry width="160" relative="1" as="geometry">
            <mxPoint x="370" y="375" as="sourcePoint" />
            <mxPoint x="200" y="335" as="targetPoint" />
            <Array as="points" />
          </mxGeometry>
        </mxCell>
        <mxCell id="IhLSrTR3K9B3fhgBk1G8-36" value="&amp;lt;&amp;lt;extend&amp;gt;&amp;gt;" style="edgeStyle=none;html=1;startArrow=open;endArrow=none;startSize=12;verticalAlign=bottom;dashed=1;labelBackgroundColor=none;rounded=0;entryX=1;entryY=0.5;entryDx=0;entryDy=0;exitX=0;exitY=0.5;exitDx=0;exitDy=0;" parent="IhLSrTR3K9B3fhgBk1G8-4" source="IhLSrTR3K9B3fhgBk1G8-23" target="IhLSrTR3K9B3fhgBk1G8-18" edge="1">
          <mxGeometry width="160" relative="1" as="geometry">
            <mxPoint x="370" y="295" as="sourcePoint" />
            <mxPoint x="200" y="335" as="targetPoint" />
            <Array as="points" />
          </mxGeometry>
        </mxCell>
        <mxCell id="IhLSrTR3K9B3fhgBk1G8-37" value="Obtener recordatorios para realizar renovaciones" style="ellipse;whiteSpace=wrap;html=1;labelBorderColor=default;strokeWidth=1;" parent="IhLSrTR3K9B3fhgBk1G8-4" vertex="1">
          <mxGeometry x="50" y="490" width="140" height="70" as="geometry" />
        </mxCell>
        <mxCell id="IhLSrTR3K9B3fhgBk1G8-40" value="&amp;lt;&amp;lt;include&amp;gt;&amp;gt;" style="edgeStyle=none;html=1;endArrow=open;verticalAlign=bottom;dashed=1;labelBackgroundColor=none;rounded=0;exitX=1;exitY=0.5;exitDx=0;exitDy=0;entryX=0;entryY=0.5;entryDx=0;entryDy=0;" parent="IhLSrTR3K9B3fhgBk1G8-4" source="IhLSrTR3K9B3fhgBk1G8-14" target="IhLSrTR3K9B3fhgBk1G8-28" edge="1">
          <mxGeometry x="0.1169" y="1" width="160" relative="1" as="geometry">
            <mxPoint x="200" y="245" as="sourcePoint" />
            <mxPoint x="290" y="165" as="targetPoint" />
            <mxPoint as="offset" />
          </mxGeometry>
        </mxCell>
        <mxCell id="IhLSrTR3K9B3fhgBk1G8-13" style="edgeStyle=orthogonalEdgeStyle;rounded=0;orthogonalLoop=1;jettySize=auto;html=1;exitX=0.5;exitY=0.5;exitDx=0;exitDy=0;exitPerimeter=0;entryX=0;entryY=0.5;entryDx=0;entryDy=0;" parent="1" source="IhLSrTR3K9B3fhgBk1G8-10" target="IhLSrTR3K9B3fhgBk1G8-12" edge="1">
          <mxGeometry relative="1" as="geometry">
            <Array as="points">
              <mxPoint x="200" y="420" />
              <mxPoint x="200" y="285" />
            </Array>
          </mxGeometry>
        </mxCell>
        <mxCell id="IhLSrTR3K9B3fhgBk1G8-15" style="edgeStyle=orthogonalEdgeStyle;rounded=0;orthogonalLoop=1;jettySize=auto;html=1;exitX=0.5;exitY=0.5;exitDx=0;exitDy=0;exitPerimeter=0;entryX=0;entryY=0.5;entryDx=0;entryDy=0;" parent="1" source="IhLSrTR3K9B3fhgBk1G8-10" target="IhLSrTR3K9B3fhgBk1G8-14" edge="1">
          <mxGeometry relative="1" as="geometry">
            <Array as="points">
              <mxPoint x="200" y="420" />
              <mxPoint x="200" y="195" />
            </Array>
          </mxGeometry>
        </mxCell>
        <mxCell id="IhLSrTR3K9B3fhgBk1G8-19" style="edgeStyle=orthogonalEdgeStyle;rounded=0;orthogonalLoop=1;jettySize=auto;html=1;exitX=0.5;exitY=0.5;exitDx=0;exitDy=0;exitPerimeter=0;entryX=0;entryY=0.5;entryDx=0;entryDy=0;" parent="1" source="IhLSrTR3K9B3fhgBk1G8-10" target="IhLSrTR3K9B3fhgBk1G8-18" edge="1">
          <mxGeometry relative="1" as="geometry">
            <Array as="points">
              <mxPoint x="200" y="420" />
              <mxPoint x="200" y="385" />
            </Array>
          </mxGeometry>
        </mxCell>
        <mxCell id="IhLSrTR3K9B3fhgBk1G8-32" style="edgeStyle=orthogonalEdgeStyle;rounded=0;orthogonalLoop=1;jettySize=auto;html=1;exitX=0.5;exitY=0.5;exitDx=0;exitDy=0;exitPerimeter=0;entryX=0;entryY=0.5;entryDx=0;entryDy=0;" parent="1" source="IhLSrTR3K9B3fhgBk1G8-10" target="IhLSrTR3K9B3fhgBk1G8-31" edge="1">
          <mxGeometry relative="1" as="geometry">
            <Array as="points">
              <mxPoint x="200" y="420" />
              <mxPoint x="200" y="475" />
            </Array>
          </mxGeometry>
        </mxCell>
        <mxCell id="IhLSrTR3K9B3fhgBk1G8-38" style="edgeStyle=orthogonalEdgeStyle;rounded=0;orthogonalLoop=1;jettySize=auto;html=1;exitX=0.5;exitY=0.5;exitDx=0;exitDy=0;exitPerimeter=0;entryX=0;entryY=0.5;entryDx=0;entryDy=0;" parent="1" source="IhLSrTR3K9B3fhgBk1G8-10" target="IhLSrTR3K9B3fhgBk1G8-37" edge="1">
          <mxGeometry relative="1" as="geometry">
            <Array as="points">
              <mxPoint x="200" y="420" />
              <mxPoint x="200" y="575" />
            </Array>
          </mxGeometry>
        </mxCell>
        <mxCell id="IhLSrTR3K9B3fhgBk1G8-10" value="Empleado" style="shape=umlActor;html=1;verticalLabelPosition=bottom;verticalAlign=top;align=center;labelBorderColor=default;" parent="1" vertex="1">
          <mxGeometry x="30" y="390" width="30" height="60" as="geometry" />
        </mxCell>
        <mxCell id="3Uu9GB4KOyHP60_tCdzX-1" value="&lt;h1&gt;Empleado&amp;nbsp;&lt;/h1&gt;&lt;div&gt;En este caso va a ser el usuario final del programa, encargado de usarlo para enviar al cliente todos los datos requeridos&lt;/div&gt;&lt;div&gt;&lt;br&gt;&lt;/div&gt;" style="text;html=1;strokeColor=none;fillColor=none;spacing=5;spacingTop=-20;whiteSpace=wrap;overflow=hidden;rounded=0;" vertex="1" parent="1">
          <mxGeometry x="10" y="490" width="190" height="120" as="geometry" />
        </mxCell>
        <mxCell id="3Uu9GB4KOyHP60_tCdzX-2" value="&lt;h1&gt;&lt;span style=&quot;background-color: initial;&quot;&gt;Informacion vehiculo&lt;/span&gt;&lt;/h1&gt;&lt;div&gt;Se ingresara el placa, tipo de auto (CL C o particular) seguido opcionalmente de la cedula a nombre de quien estara el seguro y el precio del vehiculo&lt;/div&gt;" style="text;html=1;strokeColor=none;fillColor=none;spacing=5;spacingTop=-20;whiteSpace=wrap;overflow=hidden;rounded=0;" vertex="1" parent="1">
          <mxGeometry x="850" y="50" width="190" height="160" as="geometry" />
        </mxCell>
        <mxCell id="3Uu9GB4KOyHP60_tCdzX-3" value="&lt;h1&gt;&lt;span style=&quot;background-color: initial;&quot;&gt;Obtener Informacion Vehiculo&lt;/span&gt;&lt;/h1&gt;&lt;h1&gt;&lt;span style=&quot;font-size: 12px; font-weight: 400;&quot;&gt;En base al numero de placa se buscara el vehiculo en el registro y se obtendra la informacion desplegada&lt;/span&gt;&lt;/h1&gt;&lt;div&gt;&lt;br&gt;&lt;/div&gt;" style="text;html=1;strokeColor=none;fillColor=none;spacing=5;spacingTop=-20;whiteSpace=wrap;overflow=hidden;rounded=0;" vertex="1" parent="1">
          <mxGeometry x="850" y="210" width="190" height="220" as="geometry" />
        </mxCell>
        <mxCell id="3Uu9GB4KOyHP60_tCdzX-4" value="&lt;h1&gt;&lt;span style=&quot;background-color: initial;&quot;&gt;Obtener Valor CrAutos&lt;/span&gt;&lt;/h1&gt;&lt;h1&gt;&lt;span style=&quot;font-size: 12px; font-weight: 400;&quot;&gt;Con la informacion obtenida en el registro se buscara en CrAutos el promedio de venta del tipo de auto especifico&lt;/span&gt;&lt;/h1&gt;&lt;div&gt;&lt;br&gt;&lt;/div&gt;" style="text;html=1;strokeColor=none;fillColor=none;spacing=5;spacingTop=-20;whiteSpace=wrap;overflow=hidden;rounded=0;" vertex="1" parent="1">
          <mxGeometry x="850" y="440" width="190" height="200" as="geometry" />
        </mxCell>
        <mxCell id="3Uu9GB4KOyHP60_tCdzX-5" value="&lt;h1&gt;&lt;span style=&quot;background-color: initial;&quot;&gt;Obtener Cotizaciones&lt;/span&gt;&lt;/h1&gt;&lt;h1&gt;&lt;span style=&quot;font-size: 12px; font-weight: 400;&quot;&gt;Con la informacion obtenida en el registro se ingresara en los diversos cotizadores (Oceanica,Ins,Qualitas,Lafise)&lt;/span&gt;&lt;/h1&gt;&lt;div&gt;&lt;br&gt;&lt;/div&gt;" style="text;html=1;strokeColor=none;fillColor=none;spacing=5;spacingTop=-20;whiteSpace=wrap;overflow=hidden;rounded=0;" vertex="1" parent="1">
          <mxGeometry x="1040" y="50" width="190" height="200" as="geometry" />
        </mxCell>
        <mxCell id="3Uu9GB4KOyHP60_tCdzX-6" value="&lt;h1&gt;&lt;span style=&quot;background-color: initial;&quot;&gt;Oceanica,INS,&lt;/span&gt;&lt;/h1&gt;&lt;h1&gt;&lt;span style=&quot;background-color: initial;&quot;&gt;Qualitas,Lafise&lt;/span&gt;&lt;/h1&gt;&lt;h1&gt;&lt;span style=&quot;font-size: 12px; font-weight: 400;&quot;&gt;En cada uno de estos se escogeran&amp;nbsp; diversas secciones para que cada auto cuente con las mismas coberturas&lt;/span&gt;&lt;/h1&gt;&lt;div&gt;&lt;br&gt;&lt;/div&gt;" style="text;html=1;strokeColor=none;fillColor=none;spacing=5;spacingTop=-20;whiteSpace=wrap;overflow=hidden;rounded=0;" vertex="1" parent="1">
          <mxGeometry x="1040" y="260" width="190" height="220" as="geometry" />
        </mxCell>
        <mxCell id="3Uu9GB4KOyHP60_tCdzX-7" value="&lt;h1&gt;Ingresar Correo del cliente&lt;/h1&gt;&lt;h1&gt;&lt;span style=&quot;font-size: 12px; font-weight: 400;&quot;&gt;En esta seccion se ingresa el correo para enviar las cotizaciones generadas&lt;/span&gt;&lt;/h1&gt;&lt;div&gt;&lt;br&gt;&lt;/div&gt;" style="text;html=1;strokeColor=none;fillColor=none;spacing=5;spacingTop=-20;whiteSpace=wrap;overflow=hidden;rounded=0;" vertex="1" parent="1">
          <mxGeometry x="1040" y="490" width="190" height="220" as="geometry" />
        </mxCell>
        <mxCell id="3Uu9GB4KOyHP60_tCdzX-8" value="&lt;h1&gt;Recordatorio Renovaciones&lt;/h1&gt;&lt;h1&gt;&lt;span style=&quot;font-size: 12px; font-weight: 400;&quot;&gt;A modo calendario se enviaran recordatorios para realizar renovaciones de acuerdo al contrato firmado, esta seccion es enteramente manual dado que se necesita sabe cuando se firmo el documento para agendar cuando inicia la poliza&lt;/span&gt;&lt;/h1&gt;&lt;div&gt;&lt;br&gt;&lt;/div&gt;" style="text;html=1;strokeColor=none;fillColor=none;spacing=5;spacingTop=-20;whiteSpace=wrap;overflow=hidden;rounded=0;" vertex="1" parent="1">
          <mxGeometry x="1240" y="50" width="190" height="310" as="geometry" />
        </mxCell>
      </root>
    </mxGraphModel>
  </diagram>
</mxfile>
